<svg xmlns="http://www.w3.org/2000/svg" version="1.1" xmlns:xlink="http://www.w3.org/1999/xlink" xmlns:svgjs="http://svgjs.dev/svgjs" width="2000" height="1500" viewBox="0 0 2000 1500"><rect width="2000" height="1500" fill="#ea3c12"></rect><g transform="matrix(0.4444444444444444,0,0,0.4444444444444444,555.5555555555558,250)"><svg viewBox="0 0 320 360" data-background-color="#ea3c12" preserveAspectRatio="xMidYMid meet" height="2250" width="2000" xmlns="http://www.w3.org/2000/svg" xmlns:xlink="http://www.w3.org/1999/xlink"><g id="tight-bounds" transform="matrix(1,0,0,1,-5.684341886080802e-14,0)"><svg viewBox="0 0 320 360" height="360" width="320"><g><svg></svg></g><g><svg viewBox="0 0 320 360" height="360" width="320"><g><path xmlns="http://www.w3.org/2000/svg" d="M85.508 32.884c0-1.117 0.558-2.233 1.675-2.233 1.117 0 2.233 0.558 2.234 2.233 0.558 0 1.675 0 2.233-0.558 2.233 0 4.467-0.558 6.141 0 1.675 0.558 2.792 0.558 4.467 1.117 1.675 0.558 2.792 0 3.908-0.559 2.233-0.558 3.908-1.675 6.141-2.233 1.117-0.558 1.675-0.558 2.792-0.558 1.117-0.558 2.233-0.558 3.908-1.117 2.792-0.558 5.583-1.117 7.817-2.233 2.233-1.117 4.467-1.117 6.699-1.675 1.117 0 1.675-0.558 2.792-1.117 0.558 0 0.558-0.558 1.116-1.116 1.117-0.558 1.675-1.117 2.792-0.559 0.558 0.558 1.675 0.558 2.233 0h0.559c3.35 0 6.7-0.558 10.608 0 0.558 0 1.117 0 1.116 0 1.675-1.117 3.908-1.117 6.142-1.116 0.558 0 1.675 0 2.233 0h0.558c2.233 0 4.467 0 6.142 0.558 1.675 0 2.792 0.558 4.466 1.117 1.675 0 2.792 0 4.467 0.558 1.117 0 2.233 0 3.35 0 0.558 0 1.117 0 1.116 0 2.233 0.558 4.467 0.558 6.7 0.558 1.675 0.558 3.35 1.117 5.583 1.117 0.558 0 1.117 0 1.675 0 0.558 0 1.117 0.558 1.675 0.558l0.558 0.559c2.233 0 3.908 1.117 6.142 1.116 0.558 0 1.675 0 2.233 0.559 1.675 1.117 3.908 1.675 6.141 1.675 1.117 0 1.675 0.558 2.234 1.116 1.675 0.558 2.792 1.117 4.466 1.675 1.117 0.558 2.233 0 3.35 0.558 1.675 0.558 3.908 1.117 5.583 2.792 1.117 1.117 2.233 1.117 3.908 2.233 0.558 0 1.117 0.558 1.675 1.117 1.675 1.117 3.35 2.233 5.025 2.791 0.558 0 1.117 0.558 1.675 0.559 1.675 1.117 3.35 2.792 5.583 3.908 1.117 0.558 1.675 1.117 2.792 1.675h0.558c1.675 1.675 3.908 2.792 5.583 4.466 1.675 1.675 2.792 2.792 5.025 3.909 0 0 0 0 0 0.558 0.558 1.117 1.117 1.675 2.233 2.233 1.117 0.558 1.675 1.117 2.234 1.675 1.675 1.117 3.35 2.233 4.466 3.35 0.558 0.558 1.117 1.117 2.233 2.233 0.558 0.558 1.117 1.117 1.675 1.117 2.233 0.558 3.35 2.233 5.025 3.908 1.117 1.117 2.792 2.792 3.908 3.908 0.558 0.558 1.117 1.675 1.675 2.792 1.117 3.35 2.792 6.7 4.467 9.491 0 0 0 0.558 0.558 1.117v0.558c1.117 1.117 1.675 2.792 2.792 3.908 0.558 0.558 0.558 1.117 1.116 1.675 1.117 1.675 1.675 3.908 2.792 5.583 1.675 2.792 2.792 5.583 3.908 8.375v0.558c0.558 1.117 1.117 2.233 1.675 3.908 0 1.117 1.117 2.233 1.675 3.909 0.558 2.792 2.233 5.583 2.791 8.933 0 0.558 0.558 1.117 0.559 2.233 0.558 1.675 1.117 3.35 1.675 5.025 0 0.558 0.558 1.117 1.116 1.675 1.117 1.117 1.117 2.233 1.117 3.35-0.558 2.233 0 4.467 0.558 6.699 0 0.558 0 1.117 0 2.234 0.558 2.233 1.117 5.025 1.117 7.258 0 0.558 0 1.675 0 2.233 0 1.675 0.558 3.35 1.675 5.025 0 0.558 0.558 0.558 0.558 0.558 0.558 0.558 1.117 1.675 1.675 2.233 0.558 0.558 0.558 0.558 1.117 1.117 1.117 1.117 1.675 2.233 1.675 3.908 0 0.558-0.558 1.675-0.559 2.233 0 0.558 0 1.675 0.559 2.234 0.558 0.558 0.558 1.117 0.558 1.675 0 0.558-0.558 1.117-1.117 1.116v0c-0.558 1.675-2.792 2.233-3.35 3.908-0.558 2.233-1.117 4.467-1.674 6.7-0.558 1.675-0.558 2.792-0.559 4.467 0 1.675-0.558 2.792-0.558 4.466-0.558 2.233-1.117 4.467-1.675 6.7 0 1.117-0.558 2.233-0.558 3.35 0.558 0.558 1.117 1.117 1.675 1.116 1.117 1.117 2.233 2.233 3.349 3.35 0.558 0.558 0.558 1.117 0 1.117-0.558 0.558-1.117 0.558-1.674 0.558-0.558-0.558-1.675-1.117-2.234-1.116-0.558-0.558-1.675-1.117-2.791-0.559 0 1.117-0.558 2.233-0.559 2.792-0.558 1.117-1.117 2.792-1.116 3.908-0.558 2.233-1.675 3.908-2.233 6.142-1.117 2.792-2.233 5.025-3.35 7.258-0.558 1.117-1.117 2.233-1.675 3.35v0c0 1.675-1.675 3.35-2.234 5.024-1.117 2.233-2.233 4.467-3.349 7.258-0.558 1.117-1.117 2.233-1.675 2.792-1.117 2.792-2.233 5.025-3.909 7.258-1.117 1.675-2.233 2.792-3.349 3.35-1.117 1.117-2.233 2.233-3.35 3.35-0.558 0.558-1.117 1.117-1.675 1.675-0.558 0.558-0.558 0.558-1.117 1.116-1.117 1.675-2.792 2.792-3.908 4.467-1.117 1.117-1.675 2.233-3.35 3.35-1.117 1.117-2.233 2.792-3.908 3.35-0.558 0.558-1.117 1.675-1.675 2.233-0.558 0.558-1.117 1.675-1.675 2.233 0 1.117 0.558 2.233 0.558 2.792 0 1.675-1.675 2.233-2.791 1.116-1.675-1.117-1.675-1.117-3.35 0-1.675 1.117-3.35 2.792-5.583 3.35-0.558 0-0.558 0.558-1.117 0.559-1.117 0.558-1.675 1.675-2.792 2.233-1.117 1.117-2.792 1.675-3.908 2.791-0.558 0.558-1.117 0.558-1.675 1.117-1.675 1.117-3.35 1.675-5.024 3.35-0.558 0.558-1.117 0.558-1.675 1.117 0 0.558 0 0.558 0 1.116 0 1.117-1.117 2.233-2.792 1.675-1.675-0.558-2.792 0-4.466 0-1.675 0.558-3.35 1.675-5.025 2.233-0.558 0-1.117 0.558-1.675 1.117-1.675 1.117-3.35 1.675-5.025 2.233-1.117 0-2.233 1.117-3.35 1.117-0.558 0-1.117 0.558-1.675 0.558h-0.558c-2.233 1.675-4.467 2.792-6.7 4.467-0.558 0-0.558 0.558-1.117 1.116-0.558 1.117-1.117 1.675-2.233 1.675-2.792 0-3.908 2.233-3.35 4.467 0 0.558 0.558 1.117 0.559 1.675 0.558 1.117 0 2.233-0.559 2.791-0.558 0.558-2.233 0.558-2.791-0.558-1.117-1.117-1.675-2.233-2.234-3.908-0.558-1.117-1.675-2.233-2.791-2.792-1.117-0.558-2.233-0.558-3.35 0-0.558 0-0.558 0.558-1.117 0.558-1.117 1.117-2.792 1.675-4.466 1.117-0.558 0-1.675 0-1.675 0.558-0.558 0.558-0.558 1.675 0 2.234 1.117 1.117 0.558 2.233 0.558 3.908 0 2.233-1.675 3.35-3.908 2.233-0.558-0.558-1.117-0.558-1.675-1.117-0.558 0-0.558-0.558-0.558-1.116-0.558-0.558-0.558-1.675-1.117-2.792-1.117 0.558-2.233 0.558-3.35 1.117-0.558 0-1.117 0.558-1.675 0.558-1.675 0-2.233 0-2.791-1.675-0.558-1.675-1.675-1.675-2.792-2.233-2.233-0.558-5.025-0.558-7.258-1.675h-0.558c-2.233-1.675-4.467-1.675-7.258-1.675-1.675 0-3.35 0.558-5.025 0.558-1.675 0-2.792 0.558-3.908 1.675-0.558 0.558-1.117 1.117-1.675 1.117-0.558-0.558-0.558-1.117-1.117-1.675v-0.558c0-0.558-0.558-1.117-1.116-0.559-1.117 0.558-2.233-0.558-3.35-1.116-0.558-0.558-1.675-1.675-1.675-2.792-0.558-0.558-1.117-1.117-1.675-1.116-1.117 0-2.792-0.558-3.908-0.559-0.558 0-1.117 0-1.117-0.558-0.558-0.558-1.117-0.558-2.233-0.558-0.558 0-0.558-0.558-1.117-0.559 1.117 1.117 1.675 2.233 2.233 3.35 0 0.558 0.558 0.558 0.559 1.117 0.558 1.117 0 1.675-1.675 1.675-1.117 0-1.117 0-1.675 0.558 0 1.117 0 1.675 0 2.792 0 0.558 0 1.117-1.117 1.675 0 0-0.558 0-0.558 0.558-0.558 0.558-0.558 1.117 0 1.675 1.675 1.117 2.792 1.675 4.466 2.233 1.675 0 1.675 1.117 2.234 2.233 0.558 1.117 0 1.675-0.559 2.792-1.117 1.117-2.233 2.233-3.35 3.35-1.675 0.558-2.792 2.233-4.466 2.233-1.117 0-2.233-0.558-2.792-1.675-0.558-2.792-0.558-5.025 0.559-7.816 0-0.558 0.558-1.117 0-1.675-5.025 0-5.025-1.117-5.025-1.675 0-1.117 0.558-1.675 0.558-2.792 0.558-1.117 0-1.675-1.675-2.233-0.558 0-1.117 0-1.675 0-0.558 0-0.558-0.558-1.675-0.558 1.117-0.558 1.675-0.558 2.792-1.117-0.558-2.233-1.117-3.908-2.792-5.025-0.558-0.558-1.117-1.117-1.116-2.233 0-1.675-1.117-2.792-1.675-3.908-1.117-1.675-3.35-2.233-5.025-2.233-1.675-0.558-2.792-0.558-4.467-1.117-1.675-0.558-3.35-2.233-5.024-2.792-0.558-0.558-1.117-1.117-2.234-1.674-2.233-1.117-3.908-2.792-5.583-4.467-1.117-0.558-1.675-1.675-2.791-2.233-1.117-1.117-1.675-2.233-2.792-2.792-1.117-1.117-2.233-2.233-3.908-3.35-1.675-1.117-2.792-2.792-4.467-4.466-1.117-1.675-2.792-2.792-4.466-3.908-0.558 0-1.117 0-1.675 0-0.558 0-1.117 0.558-1.675 0.558-1.675 0.558-2.792 1.675-4.467 2.233 0.558-0.558 0.558-0.558 0-1.675-0.558-0.558-1.117-1.117-1.674-1.116-1.117 0-2.233 0-3.35 0-2.233 0-4.467 0.558-6.7 0.558-1.675 0-3.908 0.558-5.583 1.117 0.558 1.117 0.558 1.675 1.116 2.791-1.117 0.558-2.233 0.558-3.35 0.558-0.558 0-1.675 0.558-2.233 1.117-0.558 0-0.558 0.558-1.116 0-1.117-0.558-2.233 0-3.35 0.558h-0.559c0 0 0-0.558 0.559-0.558 0.558-0.558 1.117-1.117 1.675-1.675 0.558-0.558 1.117-0.558 2.233-1.117-0.558-0.558-0.558-1.117-0.558-1.116-0.558-0.558-1.117-0.558-1.675 0-0.558 0.558-1.117 1.117-1.675 1.675-0.558 0.558-1.117 0.558-1.675 0-0.558-0.558-0.558-1.117 0-1.675 0-0.558 0.558-1.117 1.116-1.675 0.558-0.558 0.558-1.117 1.117-1.675-1.117-1.117-1.675-2.233-2.792-2.792-1.675-1.117-3.35-2.792-4.466-4.466-1.117-2.233-2.792-3.908-5.025-5.025-0.558-0.558-1.117-1.117-1.675-1.675-0.558-0.558-0.558-0.558-1.116-1.117-1.675 0.558-2.792 1.675-4.467 2.234-0.558 0-0.558 0.558-1.117 1.116-0.558 1.117-1.675 1.117-2.791 1.117-0.558 0-1.117-0.558-0.558-1.117 0.558-1.117 1.117-2.233 2.791-1.675 0 0 0.558 0 0.558-0.558 1.117-1.117 2.233-2.792 3.909-3.908-0.558-1.675-1.675-2.792-2.234-3.908-0.558-0.558-0.558-1.117-0.558-2.234 0-0.558 0-0.558-0.558-1.116 0 0-0.558 0-1.117 0.558-0.558 0.558-1.675 1.117-2.791 0 0-0.558 0-1.117 0.558-1.675l0.558-0.558c1.675-0.558 1.675-2.233 1.675-3.908v-0.559c-0.558-1.117-0.558-1.675 0.558-2.791 1.675-1.117 3.35-3.35 3.909-5.025 0.558-1.117 1.675-1.675 2.791-2.792 1.117-1.117 2.233-2.233 2.792-3.908h0.558c2.233 0.558 2.792-1.117 3.908-2.791 0-0.558 0-1.117 0.559-1.117 1.117-1.117 1.117-2.233 0.558-3.908 0-0.558-0.558-1.675-0.558-2.233 0-0.558 0-0.558-0.559-1.117-1.675-1.117-1.675-2.233 0-3.35 1.117-0.558 1.117-1.675 1.675-2.233 0.558-1.117 0.558-2.233 0.559-3.908-0.558-1.675-0.558-3.908-1.117-5.583-0.558-2.233-1.117-5.025-1.675-7.259 0-0.558 0-0.558 0-1.116 0-1.675 0-2.792-0.558-4.467-0.558-0.558-0.558-1.675-0.559-2.233-0.558-1.675-1.117-2.792-2.791-3.35-1.675-1.117-3.908-1.675-5.583-2.791-0.558-0.558-1.117 0-1.675 0.558-0.558 1.117-1.675 2.233-2.234 3.35-0.558 0.558-1.117 1.675-1.675 2.791-1.117 1.117-3.35 2.233-5.024 0.559-0.558-1.117-1.117-1.675 0-2.792 1.117-1.675 2.233-3.35 3.908-4.466 0.558-0.558 1.117-1.675 1.675-2.234 0.558-1.117 0.558-2.233 0.558-3.35-0.558-2.233-1.117-4.467-1.117-7.258 0-2.792 0-5.025 0.559-7.816 0.558-1.117 0.558-2.792 1.116-3.908 0-0.558 0.558-1.675 1.117-2.233 1.117-1.117 2.233-2.233 2.792-3.909 0.558-1.675 1.675-3.35 1.675-5.024 0-0.558 0.558-1.117 0.558-1.675 0-0.558 0.558-1.675 0.558-2.234-0.558-1.675 0-2.792 0.558-3.908 0.558-1.117 1.117-2.792 1.675-3.908 1.117-2.233 1.117-5.025 3.35-7.258 0.558-1.117 1.117-2.233 1.675-3.35 0.558-2.233 1.675-3.908 2.792-5.583 0.558-0.558 0.558-0.558 0.558-1.117 0.558-1.675 1.675-3.35 2.792-5.025 1.117-1.675 1.117-3.35 1.675-5.024 0-0.558 0-1.117 0.558-1.675 1.675-1.675 1.117-3.908 0.558-6.142-1.117-2.792-1.675-5.583-1.116-8.374 0-0.558 0-1.117 0.558-1.117 0.558-1.117 0.558-1.675 1.117-2.792v-0.558c1.117-1.117 2.233-2.792 3.908-3.35 2.233-1.117 4.467-1.675 7.258-2.233 2.233 0 4.467-1.117 6.141-3.35 0-0.558 0.558-0.558 1.117-1.117l0.558-0.558c0.558-1.117 1.117-1.675 1.675-2.233 1.117-1.117 2.233-2.792 3.35-3.908 1.117-1.117 2.233-2.792 3.908-4.467l0.559-0.558c1.117-1.117 2.233-2.233 3.349-2.792 1.117-1.117 2.233-2.233 3.35-3.35 1.117-1.117 1.675-2.233 2.792-3.35 1.117-0.558 2.233-1.675 3.35-2.791 1.117-1.117 2.233-2.233 2.791-2.792 1.117-1.117 2.792-2.233 3.909-2.791 1.117-0.558 2.233-1.117 2.791-2.792 0.558-1.675 1.117-2.792 1.675-4.466 0-1.117 0.558-2.233 1.117-3.35 0.558 0 1.117 0 2.233-0.558-0.558-0.558-1.117-0.558-1.117-1.117 0-0.558 0.558-1.117 0.559-1.117 0-0.558 0.558-1.117 0.558-1.675 0 0 0.558 0 0.558-0.558 0 0 0.558 0 0.559-0.558-1.117 0.558-1.675 0-2.234-0.559 0.558 0.558 1.117 0.558 2.234 1.117 0 0 0.558 0 0.558-0.558 0-0.558 0-1.117 0-1.117 0 0-0.558 0-1.117 0-0.558 0-1.117 0.558-1.675 0.558zM182.097 295.292c0-0.558-0.558-0.558-0.559-1.117-0.558-1.117 0-1.675 0.559-2.233 0.558-0.558 1.117-0.558 2.233-0.558 1.117 0.558 1.675 1.117 1.675 2.233 0 0.558 0 1.675 0 2.233 0.558 2.233 0.558 2.233 2.791 2.233 1.117 0 2.233 0 3.35 0 2.233-0.558 4.467-1.675 6.7-2.233 2.233-0.558 4.467-1.117 6.7-1.675 0.558 0 1.117 0 2.233 0 2.233 0.558 3.908 0 5.583-1.117 0.558-0.558 1.675-0.558 2.233-1.116 1.117-0.558 2.233-0.558 3.35-1.117 2.792-1.675 5.583-2.792 7.817-4.466 1.675-1.117 3.35-2.233 5.024-3.35 1.675-1.117 3.35-2.233 5.025-3.35 1.117-0.558 2.792-1.675 3.908-2.792 2.233-1.675 3.908-3.35 6.142-4.466 1.117-0.558 1.675-1.117 2.233-1.675 1.117-0.558 1.675-1.675 2.792-2.233 0.558-0.558 1.117-1.117 2.233-1.675 0.558-0.558 0.558-0.558 0.558-1.117 1.675-1.117 3.35-3.35 4.467-5.025 1.117-1.117 2.233-2.233 3.35-3.908 1.675-1.675 2.792-3.908 4.466-6.141 1.117-1.117 2.233-2.792 2.792-3.909 1.117-2.233 2.233-4.467 3.908-6.141v-0.558c1.117-2.233 2.233-4.467 3.35-6.7 1.675-2.792 2.792-6.141 4.466-8.933 0.558-1.117 1.117-2.233 1.117-3.35 1.117-2.233 1.675-4.467 2.233-6.7 0-0.558 0-0.558 0.559-1.116 1.675-3.35 2.792-6.7 3.349-10.608 0.558-2.233 1.117-4.467 1.675-6.7 1.117-3.35 1.117-6.141 1.675-9.491 0.558-2.233 0.558-5.025 0.559-7.258 0.558-3.35 0.558-7.258 0-10.608 0-2.792-0.558-6.141-0.559-8.933 0-2.792-0.558-5.025-1.116-7.817-0.558-2.792-1.117-5.025-1.675-7.816-1.117-2.233-1.675-4.467-2.234-7.258-0.558-2.233-1.675-3.908-1.674-6.142 0-1.675-0.558-3.35-2.234-3.908-1.675-0.558-2.792-1.117-4.466-2.233-3.35-2.233-5.025-5.025-4.467-8.375 0-1.675 0.558-3.908 1.117-5.583 0.558-1.675 1.117-3.35 0-4.467-0.558-1.675-1.675-2.792-2.233-3.908-1.117-1.675-1.675-2.792-2.792-3.908-1.117-2.233-2.233-4.467-3.908-6.141-2.233-2.792-3.908-5.583-6.7-7.817l-0.558-0.558c-1.675-2.233-3.35-4.467-5.583-6.142-1.117-1.117-2.233-2.233-3.35-2.791-0.558-0.558-1.117-1.117-2.233-1.675-1.675-1.117-3.35-1.675-4.467-2.792-1.675-1.675-3.908-2.792-5.583-3.908 0 0-0.558 0-0.558-0.558-2.233-1.117-3.908-1.675-6.142-2.792-2.233-1.117-4.467-1.675-6.7-1.675-0.558 0-0.558 0-1.116 0-0.558-0.558-1.675-0.558-2.233-0.558-0.558 0-0.558 0-1.117 0-1.117-0.558-2.792 0-3.908 0-2.233 0.558-4.467 0.558-6.7-0.558-2.792-1.117-5.025-2.233-7.258-3.35-1.675-1.117-2.792-2.233-4.467-3.35-3.35-2.792-6.7-6.141-10.608-8.933 0.558-2.792-0.558-3.35-2.791-3.35-1.117 0-2.233 0.558-3.35 1.117-0.558 0.558-0.558 0.558-1.117 1.116-1.675 1.117-2.792 2.792-4.466 3.909-2.792 1.675-3.908 1.117-6.142 0-0.558-0.558-1.117-1.117-1.675-1.675-1.117-1.117-2.233-2.792-2.791-3.909-1.117-2.233-3.35-2.233-5.583-2.233-1.117 0-2.792 0.558-3.908 0.558-2.233 0-4.467 1.117-5.584 2.792-1.117 1.675-2.233 3.35-3.908 5.025-0.558 0.558-1.675 1.117-2.233 2.233-1.117 1.117-2.233 1.117-3.35 0-0.558-0.558-1.117-0.558-1.675-1.117-0.558 0.558-1.117 1.117-1.117 1.675-0.558 1.117-1.117 2.233-1.674 3.909-0.558 1.675-1.675 3.35-2.792 4.466-0.558 0.558-0.558 0.558-1.117 1.117-0.558 1.117-2.233 1.675-3.35 1.675-1.117 1.117-2.233 2.792-2.791 3.908-0.558 1.117-1.117 2.233-1.675 3.908-0.558 0.558-0.558 1.675-1.117 2.233-0.558 1.117-0.558 1.675-0.558 2.792 0.558 1.675-0.558 2.233-2.233 2.791-1.117 0-1.117 0-1.675 1.117 0 1.675 0.558 2.792 1.116 4.467 0.558 0.558 1.117 1.675 1.117 2.233 0 1.117 0.558 1.675 1.675 2.233 0.558 0.558 1.117 1.117 1.675 1.117 0.558 0 0.558 0.558 1.117 0.558 0.558 0.558 1.117 0 1.116-0.558 0.558-1.675 1.117-3.35 1.117-5.025 0.558-2.233 0.558-3.908 1.116-6.142 0.558-1.117 1.117-1.675 1.675-2.233 0 0 0.558 0 1.117 0v0.559c-0.558 2.792-1.675 6.141-2.233 8.933-0.558 1.117-0.558 2.233-1.117 3.349 0 0.558-0.558 1.117-1.116 1.117-1.117 0.558-2.233 1.117-3.35 1.117-0.558 0-1.117 0-1.675 0-1.117-0.558-2.233-1.675-3.35-2.234-0.558-0.558-1.117-1.117-1.675-1.674-0.558-1.117-1.117-2.233-1.675-3.35-0.558-1.117-1.117-1.675-2.233-2.234-0.558-0.558-1.117-0.558-1.675-1.116-1.117-1.117-2.233-1.675-3.908-1.675-0.558 0-1.675 0-2.234 0-0.558 0-1.675 0.558-2.233 1.116-1.117 0.558-1.675 0.558-2.791 0-2.792-1.117-5.583-0.558-8.375 0.559-1.117 0.558-2.233 1.117-3.35 1.116-2.792 0-5.025 0-7.816 0-2.792 0-5.025-0.558-7.817-1.116-1.117 0-2.233 0-3.35 0-2.233 0.558-2.792 2.233-2.233 4.466 0.558 2.233 1.117 5.025 1.117 7.258 0 1.675 0 3.35 0 5.025 0 1.117 0 1.675 0 2.792 0 1.675-0.558 3.35-0.559 5.025-0.558 3.35-2.233 6.141-4.466 8.374-1.675 1.675-3.908 3.35-6.142 3.908-1.117 0.558-2.233 1.117-3.908 1.675-2.792 1.117-5.025 3.35-6.7 6.142-0.558 1.117-1.117 2.233-1.674 3.35-1.117 1.675-1.675 2.792-2.792 4.466-0.558 1.117-1.675 2.233-2.233 3.35-0.558 1.117-1.675 1.675-1.675 2.792-1.117 2.233-1.675 4.467-2.792 6.699-0.558 1.117-0.558 2.792-1.116 3.909-1.117 2.233-1.117 4.467-1.117 7.258 0 0.558 0 1.117 0 2.233 0 2.792-0.558 6.141-0.558 8.933 0 2.792 0 5.583 0.558 8.375 0 1.117 0 2.792 0 3.908 0 2.233 0.558 5.025 0.558 7.258 0 2.233 0 5.025 1.117 7.258v0.558c0.558 2.233 0.558 4.467 1.116 6.7 0 0.558 0 1.117 0.559 1.675 1.117 3.35 1.675 6.141 2.791 9.491 0.558 2.233 1.675 4.467 2.234 6.7 0.558 2.233 2.792 4.467 3.349 7.258v0c1.675 3.35 3.35 6.7 5.584 10.05 0.558 1.117 1.675 2.233 2.233 3.35 1.117 1.675 1.675 3.35 2.791 4.466 0.558 1.117 1.675 2.233 2.234 2.792 0.558 1.117 1.117 2.233 2.233 3.35 1.117 1.117 2.233 2.792 3.35 3.908 1.675 2.792 3.908 5.025 6.141 6.7 1.117 1.117 2.233 1.675 3.35 2.791 0.558 0.558 1.117 0.558 1.117 1.117 0.558 0.558 1.117 1.117 2.233 1.675 4.467 2.233 7.816 5.583 11.725 8.933 1.675 1.675 3.35 3.35 5.583 4.466 2.233 1.675 3.908 3.35 6.7 3.908 0 0 0.558 0 0.558 0.559 1.117 1.117 2.792 1.675 3.908 2.233 2.233 1.117 5.025 2.233 7.258 3.35 0.558 0.558 1.675 0.558 2.233 1.117 1.675 0.558 3.35 1.117 5.025 1.674 1.675 0.558 2.792 1.117 4.467 1.117h0.558c1.117 0.558 1.675 0.558 2.792 0 0.558 0 1.117 0 1.116 0.558 0 0.558 0.558 0.558 1.117 0.559 0.558 0 1.117 0 2.233 0 0.558-0.558 0.558-1.117 1.117-2.234 0.558 0.558 1.117 0.558 1.116 0.559 0.558 1.117 1.675 1.117 2.792 1.116h0.558c1.117 0 1.675 0 2.233-0.558 0-0.558 1.117-0.558 1.675-0.558 1.675 0.558 3.35 0.558 5.025 1.116 1.117 0.558 2.792 0.558 3.35-0.558 0.558-0.558 1.117-1.117 2.233-0.558 1.117 0.558 1.675 0.558 2.792 0 0.558 0 1.117 0 1.117 0 1.675 0.558 2.792 0.558 4.466 1.116 2.233 0.558 2.233 0.558 3.908-1.116 0.558-0.558 1.675-0.558 2.233 0 0.558 1.117 0.558 1.675 0.559 2.791 0.558 0 0.558 0 1.116-0.558 0-1.117 0.558-1.117 1.675-1.675 0.558 0.558 0.558 0.558 1.117 0.558 1.117 1.117 1.675 1.117 2.233-0.558 0-0.558 0-1.117 0.559-1.116 0.558 0 1.117 0.558 1.116 0.558 0.558 1.117 1.675 1.675 2.233 2.791 1.117 1.117 2.792 1.117 3.35 0 0.558-0.558 1.117-0.558 1.675-0.558 0-0.558 0-1.117 0-1.675 1.675 1.117 1.117 1.117 0.559 1.117zM89.417 34.559c1.675 0.558 2.792 0.558 3.349-0.558-1.117 0.558-2.233-0.558-3.349 0.558z" fill="#ffbe79" fill-rule="nonzero" stroke="none" stroke-width="1" stroke-linecap="butt" stroke-linejoin="miter" stroke-miterlimit="10" stroke-dasharray="" stroke-dashoffset="0" font-family="none" font-weight="none" font-size="none" text-anchor="none" style="mix-blend-mode: normal" data-fill-palette-color="tertiary"></path></g><g transform="matrix(1,0,0,1,64,136.20657277546363)"><svg viewBox="0 0 192 87.58685444907273" height="87.58685444907273" width="192"><g><svg viewBox="0 0 192 87.58685444907273" height="87.58685444907273" width="192"><g><svg viewBox="0 0 192 87.58685444907273" height="87.58685444907273" width="192"><g><svg viewBox="0 0 192 87.58685444907273" height="87.58685444907273" width="192"><g id="textblocktransform"><svg viewBox="0 0 192 87.58685444907273" height="87.58685444907273" width="192" id="textblock"><g><svg viewBox="0 0 192 87.58685444907273" height="87.58685444907273" width="192"><g transform="matrix(1,0,0,1,0,0)"><svg width="192" viewBox="0.49000000953674316 -52.00862121582031 135.1999969482422 61.678619384765625" height="87.58685444907273" data-palette-color="#ffbe79"><path d="M47.61-6.15L47.61-6.15Q47.36-5.37 47.46-4.59L47.46-4.59Q47.31-4.39 47.12-4.35 46.92-4.3 46.73-4.22 46.53-4.15 46.41-4.03 46.29-3.91 46.39-3.56L46.39-3.56Q44.78-3.47 43.31-2.88 41.85-2.29 40.43-1.61L40.43-1.61Q39.7-1.86 39.16-2.2 38.62-2.54 37.79-2.64L37.79-2.64Q36.96-4.3 36.25-6.13 35.55-7.96 35.55-9.81L35.55-9.81Q35.55-11.18 36.04-12.3L36.04-12.3Q36.04-13.77 36.28-15.19 36.52-16.6 36.84-17.99 37.16-19.38 37.4-20.8 37.65-22.22 37.65-23.68L37.65-23.68 37.65-24.76Q37.55-24.76 37.4-24.54 37.26-24.32 37.13-24.05 37.01-23.78 36.91-23.54 36.82-23.29 36.77-23.24L36.77-23.24Q35.94-22.61 35.47-21.66 35.01-20.7 34.47-19.87L34.47-19.87Q33.79-18.85 33.03-17.87 32.28-16.89 31.15-16.36L31.15-16.36 31.15-16.26Q31.15-16.02 31.01-15.92 30.86-15.82 30.96-15.43L30.96-15.43Q29.74-15.04 28.69-14.31 27.64-13.57 26.95-12.45L26.95-12.45Q25.98-12.21 25.12-11.79 24.27-11.38 23.39-10.89L23.39-10.89Q23-10.69 22.56-10.4 22.12-10.11 21.68-10.01L21.68-10.01Q21.29-9.86 20.63-9.81 19.97-9.77 19.26-9.72 18.55-9.67 17.87-9.67L17.87-9.67 16.8-9.67Q16.55-9.67 16.16-9.91 15.77-10.16 15.31-10.45 14.84-10.74 14.36-11.01 13.87-11.28 13.43-11.38L13.43-11.38Q13.04-12.65 12.33-13.65 11.62-14.65 10.84-15.67L10.84-15.67Q10.6-16.85 10.18-18.12 9.77-19.38 8.74-20.21L8.74-20.21Q8.98-20.56 8.98-21L8.98-21Q8.98-21.53 8.74-22.02 8.5-22.51 8.5-23.1L8.5-23.1Q8.5-23.49 8.54-23.68L8.54-23.68Q8.01-23.1 7.79-22.19 7.57-21.29 7.57-20.56L7.57-20.56Q7.57-19.97 7.71-19.48L7.71-19.48Q7.23-18.8 7.1-17.77 6.98-16.75 6.98-15.97L6.98-15.97Q6.98-14.99 7.13-14.06L7.13-14.06Q6.35-13.28 6.35-12.16L6.35-12.16Q6.35-11.52 6.64-11.04L6.64-11.04Q6.64-10.84 6.54-10.74 6.45-10.64 6.32-10.6 6.2-10.55 6.08-10.47 5.96-10.4 5.96-10.21L5.96-10.21Q5.96-9.96 5.98-9.67 6.01-9.38 6.01-9.08L6.01-9.08Q6.01-8.4 5.96-7.67 5.91-6.93 5.91-6.25L5.91-6.25Q5.91-4.83 6.18-4.22 6.45-3.61 6.86-3.32 7.28-3.03 7.76-2.73 8.25-2.44 8.74-1.61L8.74-1.61Q8.59-1.17 8.23-0.9 7.86-0.63 7.54-0.37 7.23-0.1 6.98 0.24 6.74 0.59 6.79 1.22L6.79 1.22 6.54 1.22Q5.91 1.22 5.32 1.42 4.74 1.61 4.1 1.61L4.1 1.61Q3.96 1.61 3.81 1.59 3.66 1.56 3.52 1.56L3.52 1.56 3.03 1.27Q2.78 1.12 2.54 1.12L2.54 1.12Q2.29 1.12 1.9 1.22L1.9 1.22Q1.22-0.98 0.85-3.32 0.49-5.66 0.49-7.91L0.49-7.91Q0.49-8.15 0.61-8.42 0.73-8.69 0.98-8.59L0.98-8.59 0.98-9.52Q0.98-11.04 1.25-12.48 1.51-13.92 1.51-15.48L1.51-15.48Q1.51-15.92 1.49-16.36 1.46-16.8 1.42-17.19L1.42-17.19Q1.66-18.02 1.93-18.87 2.2-19.73 2.2-20.65L2.2-20.65Q2.2-21.04 2.05-21.58L2.05-21.58Q2.44-21.88 2.64-22.34 2.83-22.8 2.93-23.36 3.03-23.93 3.08-24.46 3.13-25 3.17-25.44L3.17-25.44Q3.66-26.42 3.71-27.54 3.76-28.66 4.2-29.64L4.2-29.64Q4.15-29.83 4.15-30.32L4.15-30.32Q4.15-31.3 4.47-32.3 4.79-33.3 5.76-33.84L5.76-33.84Q6.64-33.5 7.81-33.5L7.81-33.5Q8.94-33.5 9.96-33.84L9.96-33.84Q10.25-33.74 10.5-33.62 10.74-33.5 11.01-33.37 11.28-33.25 11.57-33.18 11.87-33.11 12.26-33.15L12.26-33.15Q12.74-31.74 13.11-30.27 13.48-28.81 13.67-27.29L13.67-27.29Q13.77-26.66 13.75-25.93 13.72-25.2 13.82-24.56L13.82-24.56Q13.87-24.17 14.06-23.85 14.26-23.54 14.45-23.14 14.65-22.75 14.77-22.27 14.89-21.78 14.84-21.04L14.84-21.04Q15.38-19.78 16.04-18.63 16.7-17.48 17.48-16.36L17.48-16.36Q17.92-16.21 18.26-15.99 18.6-15.77 18.7-15.28L18.7-15.28Q19.14-15.28 19.48-15.14L19.48-15.14 20.31-14.89Q22.17-15.48 23.75-16.46 25.34-17.43 27.1-18.12L27.1-18.12Q29.25-20.21 30.81-22.78 32.37-25.34 33.94-27.88L33.94-27.88 33.94-28.96Q34.23-29.1 34.45-29.32 34.67-29.54 35.01-29.64L35.01-29.64Q35.06-30.22 35.28-30.79 35.5-31.35 35.77-31.86 36.04-32.37 36.23-32.89 36.43-33.4 36.43-33.98L36.43-33.98Q36.43-34.33 36.38-34.57L36.38-34.57Q37.11-35.3 38.13-35.3L38.13-35.3Q39.11-35.3 40.11-34.84 41.11-34.38 41.99-33.98L41.99-33.98Q42.53-32.81 42.8-31.52 43.07-30.22 43.16-28.86 43.26-27.49 43.26-26.12L43.26-26.12 43.26-22.66Q43.21-22.27 42.99-22.09 42.77-21.92 42.68-21.58L42.68-21.58 42.68-21.09Q42.68-20.85 42.63-20.61L42.63-20.61Q42.63-19.58 42.38-18.46L42.38-18.46Q42.14-17.04 41.77-15.6 41.41-14.16 41.41-12.7L41.41-12.7Q41.41-12.16 41.46-11.62 41.5-11.08 41.65-10.55L41.65-10.55Q41.41-10.11 41.41-9.42L41.41-9.42Q41.41-8.64 41.67-7.98 41.94-7.32 42.33-6.69L42.33-6.69Q43.02-6.69 43.7-6.74 44.38-6.79 45.12-6.79L45.12-6.79Q45.8-6.79 46.39-6.67 46.97-6.54 47.61-6.15ZM94.24-35.21L94.24-34.08Q94.24-31.3 93.5-28.96 92.77-26.61 91.62-24.46 90.48-22.31 89.16-20.21 87.84-18.12 86.67-15.77L86.67-15.77Q86.37-15.77 86.25-15.63 86.13-15.48 86.06-15.26 85.98-15.04 85.86-14.87 85.74-14.7 85.45-14.7L85.45-14.7Q85.01-13.62 84.32-12.67 83.64-11.72 82.88-10.82 82.13-9.91 81.42-8.98 80.71-8.06 80.17-6.98L80.17-6.98 79.69-6.98Q77.05-3.17 73.75-0.15 70.46 2.88 66.55 5.27L66.55 5.27Q66.45 5.57 66.26 5.76 66.06 5.96 66.16 6.3L66.16 6.3Q65.62 6.59 65.26 7.06 64.89 7.52 64.55 8.01 64.21 8.5 63.84 8.96 63.47 9.42 62.89 9.67L62.89 9.67Q62.16 9.52 61.5 9.42 60.84 9.33 60.15 9.28L60.15 9.28Q59.86 9.28 59.57 9.3 59.27 9.33 59.03 9.28L59.03 9.28Q58.49 9.18 58.13 8.86 57.76 8.54 57.08 8.54L57.08 8.54Q56.74 8.54 56.54 8.59L56.54 8.59Q56.15 7.91 55.64 7.2 55.12 6.49 55.12 5.66L55.12 5.66Q55.12 5.03 55.3 4.49 55.47 3.96 55.47 3.37L55.47 3.37Q55.47 2.2 55.05 1.07 54.64-0.05 54.64-1.22L54.64-1.22Q54.64-1.61 54.73-1.98 54.83-2.34 54.83-2.73L54.83-2.73Q54.83-3.17 54.44-3.52L54.44-3.52Q54.49-3.76 54.64-4 54.78-4.25 54.78-4.54L54.78-4.54Q54.88-4.93 54.83-5.4 54.78-5.86 54.78-6.25L54.78-6.25Q54.78-7.28 54.88-8.3 54.98-9.33 55.32-10.3L55.32-10.3Q55.27-10.6 55.17-10.84L55.17-10.84 54.98-11.33Q55.32-12.35 55.42-13.62 55.52-14.89 55.52-16.16L55.52-16.16 55.52-18.75Q55.52-20.02 55.66-21.14L55.66-21.14Q55.76-21.63 55.88-22.09 56-22.56 56-23L56-23Q56-23.39 55.86-23.71 55.71-24.02 55.47-24.32L55.47-24.32Q55.81-24.41 55.86-24.73 55.91-25.05 55.91-25.29L55.91-25.29Q55.91-25.98 55.66-26.81L55.66-26.81Q55.86-27.64 55.91-28.49 55.95-29.35 55.95-30.18L55.95-30.18Q55.95-33.11 55.59-35.94 55.22-38.77 55.12-41.65L55.12-41.65 54.98-41.65Q54.64-41.65 54.44-41.5 54.25-41.36 54.05-41.19 53.85-41.02 53.61-40.89 53.37-40.77 53.02-40.82L53.02-40.82Q52.44-40.14 51.68-39.65 50.93-39.16 50.1-38.77 49.27-38.38 48.39-38.06 47.51-37.74 46.73-37.45L46.73-37.45Q46.04-37.7 45.55-38.26 45.07-38.82 44.63-39.4L44.63-39.4Q44.58-39.6 44.58-39.79L44.58-39.79 44.58-40.19Q44.58-41.55 45.21-42.26 45.85-42.97 46.58-43.95L46.58-43.95 46.82-43.95Q47.07-43.95 47.24-43.85 47.41-43.75 47.65-43.75L47.65-43.75 47.8-43.75Q49.22-44.92 50.8-45.63 52.39-46.34 54.1-46.73L54.1-46.73Q54.83-47.46 55.59-47.85 56.35-48.24 57.37-48.24L57.37-48.24Q57.61-48.24 57.93-48.22 58.25-48.19 58.49-48.14L58.49-48.14Q60.5-49.07 62.28-49.73 64.06-50.39 66.4-50.39L66.4-50.39Q66.7-50.39 66.82-50.54 66.94-50.68 67.04-50.85 67.14-51.03 67.23-51.17 67.33-51.32 67.58-51.32L67.58-51.32Q67.58-51.22 67.62-51.03 67.67-50.83 67.87-50.83L67.87-50.83Q68.06-50.83 68.23-50.95 68.41-51.07 68.65-51.07L68.65-51.07Q68.89-51.07 68.99-50.73L68.99-50.73Q69.53-51.07 70.02-51.37 70.51-51.66 71.09-51.81L71.09-51.81Q71.82-51.66 72.58-51.56 73.34-51.46 74.12-51.46L74.12-51.46Q74.7-51.46 75.29-51.54 75.88-51.61 76.32-52L76.32-52Q76.51-52.05 76.51-51.81L76.51-51.81Q76.95-51.42 77.44-51.29 77.93-51.17 78.46-51.15 79-51.12 79.54-51.07 80.08-51.03 80.52-50.73L80.52-50.73Q80.91-50.63 81.15-50.42 81.39-50.2 81.78-50.05L81.78-50.05Q82.08-49.95 82.59-49.9 83.1-49.85 83.35-49.71L83.35-49.71Q83.59-49.61 83.62-49.39 83.64-49.17 83.88-49.02L83.88-49.02Q84.32-48.68 85.06-48.61 85.79-48.54 86.33-48.14L86.33-48.14Q86.52-47.07 87.4-46.73 88.28-46.39 89.11-46.04L89.11-46.04Q89.4-45.75 89.3-45.36L89.3-45.36Q89.89-44.92 90.35-44.38 90.82-43.85 91.23-43.24 91.65-42.63 92.04-42.04 92.43-41.46 92.97-40.97L92.97-40.97Q92.92-40.53 93.09-40.28 93.26-40.04 93.16-39.55L93.16-39.55Q93.75-39.01 94.24-38.13L94.24-38.13Q93.94-37.7 93.94-37.16L93.94-37.16Q93.94-36.67 94.09-36.18 94.24-35.69 94.24-35.21L94.24-35.21ZM89.69-34.33L89.69-35.16Q89.69-36.57 89.16-37.92 88.62-39.26 88.23-40.58L88.23-40.58Q87.6-40.58 87.42-41.04 87.25-41.5 86.81-41.85L86.81-41.85Q85.89-42.04 85.64-43.26L85.64-43.26Q84.67-43.65 83.64-44.14 82.61-44.63 81.93-45.51L81.93-45.51Q80.17-46.04 78.39-46.61 76.61-47.17 74.75-47.17L74.75-47.17Q74.41-47.17 74.14-47.14 73.87-47.12 73.63-47.12L73.63-47.12Q73.24-47.12 72.8-46.97 72.36-46.83 71.97-46.83L71.97-46.83Q71.53-46.83 71.09-47.12L71.09-47.12Q70.11-46.58 68.97-46.29 67.82-46 66.65-45.78 65.48-45.56 64.35-45.24 63.23-44.92 62.35-44.29L62.35-44.29Q62.06-44.38 61.79-44.43 61.52-44.48 61.28-44.48L61.28-44.48Q60.84-44.48 60.59-44.29L60.59-44.29Q60.45-44.19 60.42-44.04 60.4-43.9 60.37-43.73 60.35-43.55 60.25-43.46 60.15-43.36 59.86-43.41L59.86-43.41Q59.86-43.16 59.84-42.97 59.81-42.77 59.81-42.53L59.81-42.53Q59.81-41.26 60.08-40.01 60.35-38.77 60.35-37.5L60.35-37.5Q60.35-37.06 60.3-36.6 60.25-36.13 60.1-35.69L60.1-35.69Q60.35-35.11 60.37-34.42 60.4-33.74 60.4-33.06 60.4-32.37 60.45-31.71 60.5-31.05 60.79-30.47L60.79-30.47Q60.64-29.74 60.59-29 60.54-28.27 60.54-27.54L60.54-27.54Q60.54-25.83 60.72-24.17 60.89-22.51 60.89-20.8L60.89-20.8Q60.89-20.36 60.86-19.87 60.84-19.38 60.79-18.9L60.79-18.9Q60.69-18.26 60.45-17.68 60.2-17.09 60.2-16.41L60.2-16.41Q60.2-15.97 60.25-15.5 60.3-15.04 60.3-14.55L60.3-14.55Q60.3-14.36 60.28-14.18 60.25-14.01 60.25-13.82L60.25-13.82Q60.01-12.11 59.86-10.35 59.71-8.59 59.71-6.88L59.71-6.88Q59.71-5.27 59.81-3.69 59.91-2.1 60.1-0.49L60.1-0.49Q59.91-0.15 59.91 0.29L59.91 0.29Q59.91 0.98 60.25 1.68 60.59 2.39 61.28 2.64L61.28 2.64Q62.84 2.05 64.18 1.1 65.52 0.15 66.89-0.83L66.89-0.83Q67.23-1.07 67.92-1.49 68.6-1.9 68.85-2.1L68.85-2.1Q69.09-2.29 69.26-2.51 69.43-2.73 69.68-2.98L69.68-2.98 71.82-5.27Q73.68-7.18 75.51-9.13 77.34-11.08 78.9-13.28L78.9-13.28Q79.34-13.96 79.78-14.62 80.22-15.28 80.61-16.02L80.61-16.02Q80.81-16.26 80.91-16.58 81-16.89 81.25-17.14L81.25-17.14Q81.39-17.33 81.61-17.53 81.83-17.72 81.98-17.92L81.98-17.92Q82.37-18.36 82.74-18.82 83.1-19.29 83.49-19.82L83.49-19.82Q84.57-21.39 85.5-22.97 86.42-24.56 87.55-26.12L87.55-26.12Q87.64-27.1 87.94-27.95 88.23-28.81 88.52-29.61 88.82-30.42 89.01-31.3 89.21-32.18 89.11-33.25L89.11-33.25Q89.35-33.59 89.52-33.74 89.69-33.89 89.69-34.33L89.69-34.33ZM135.69-31.2L135.69-31.2 135.49-31.2Q135.4-31.25 135.3-31.2 135.2-31.15 135.2-31.05L135.2-31.05Q135.3-30.66 135.3-30.52L135.3-30.52Q135.3-29.93 134.93-29.52 134.57-29.1 134.57-28.81L134.57-28.81Q134.57-28.66 134.74-28.56 134.91-28.47 135-28.42L135-28.42Q134.76-28.13 134.57-27.78 134.37-27.44 134.13-27.2L134.13-27.2Q134.22-25.49 134.54-23.85 134.86-22.22 134.86-20.56L134.86-20.56Q134.86-19.73 134.69-18.92 134.52-18.12 134.32-17.31 134.13-16.5 133.95-15.7 133.78-14.89 133.78-14.06L133.78-14.06Q133.15-12.79 132.42-11.65 131.68-10.5 131.34-9.13L131.34-9.13Q130.22-8.45 129.41-7.45 128.61-6.45 127.83-5.47L127.83-5.47Q126.12-4.88 124.7-3.91L124.7-3.91Q124.46-3.86 124.26-3.86L124.26-3.86 123.87-3.86Q122.02-3.86 120.7-4.54 119.38-5.22 118.43-6.32 117.48-7.42 116.79-8.84 116.11-10.25 115.52-11.77L115.52-11.77Q114.4-10.94 113.5-9.89 112.59-8.84 111.66-7.81L111.66-7.81Q111.37-7.42 110.96-6.91 110.54-6.4 110.15-6.15L110.15-6.15Q109.96-6.05 109.74-5.98 109.52-5.91 109.27-5.81L109.27-5.81Q107.91-5.03 107.12-3.71L107.12-3.71Q106.15-3.32 105.24-2.83 104.34-2.34 103.51-1.81L103.51-1.81Q102.58-1.76 101.68-1.68 100.78-1.61 99.9-1.61L99.9-1.61Q98.53-1.61 97.97-1.78 97.41-1.95 97.09-2.22 96.77-2.49 96.45-2.88 96.14-3.27 95.26-3.71L95.26-3.71Q95.01-4.35 94.79-4.98 94.58-5.62 94.18-6.15L94.18-6.15 94.18-6.84Q94.18-7.28 94.16-7.67 94.14-8.06 93.99-8.37 93.84-8.69 93.5-8.79L93.5-8.79Q93.5-10.6 93.94-12.35 94.38-14.11 94.67-15.92L94.67-15.92Q94.92-16.94 94.97-18.02L94.97-18.02Q95.01-18.26 95.01-18.55 95.01-18.85 95.11-19.14L95.11-19.14Q95.21-19.43 95.45-19.63 95.7-19.82 95.8-20.21L95.8-20.21Q96.04-20.9 96.09-21.73 96.14-22.56 96.24-23.29L96.24-23.29Q96.48-24.76 96.8-26.22 97.11-27.69 97.55-29.1L97.55-29.1Q97.5-29.35 97.5-29.54L97.5-29.54 97.5-30.03Q97.5-31.88 97.77-33.64 98.04-35.4 98.04-37.26L98.04-37.26Q98.04-38.13 97.9-39.11L97.9-39.11Q98.14-39.6 98.46-40.01 98.77-40.43 99.31-40.67L99.31-40.67Q100.34-40.14 101.34-39.53 102.34-38.92 103.27-38.18L103.27-38.18 103.27-37.01Q103.27-35.6 103.19-34.01 103.12-32.42 102.9-30.81 102.68-29.2 102.34-27.69 102-26.17 101.41-24.9L101.41-24.9 101.41-23.34Q100.53-21.78 100.24-20.07 99.95-18.36 99.56-16.65L99.56-16.65Q99.46-16.11 99.16-15.38 98.87-14.65 98.87-14.11L98.87-14.11Q98.87-13.87 98.95-13.62 99.02-13.38 99.07-13.13L99.07-13.13Q98.68-12.26 98.65-11.25 98.63-10.25 98.38-9.28L98.38-9.28Q98.77-8.64 99.09-7.93 99.41-7.23 99.8-6.49L99.8-6.49 100.29-6.54Q100.73-6.54 101.22-6.47 101.7-6.4 102.14-6.4L102.14-6.4Q102.39-6.4 102.63-6.42 102.88-6.45 103.12-6.49L103.12-6.49Q103.41-7.03 103.9-7.35 104.39-7.67 104.9-7.91 105.41-8.15 105.88-8.45 106.34-8.74 106.64-9.28L106.64-9.28 107.32-9.28Q107.42-9.42 107.69-9.67 107.95-9.91 108.2-10.16 108.44-10.4 108.61-10.64 108.78-10.89 108.74-11.04L108.74-11.04Q109.32-11.28 109.74-11.69 110.15-12.11 110.54-12.57 110.93-13.04 111.32-13.48 111.71-13.92 112.25-14.21L112.25-14.21Q112.2-14.31 112.2-14.45L112.2-14.45Q112.2-14.89 112.47-15.14 112.74-15.38 112.59-16.02L112.59-16.02 112.74-15.97Q112.98-15.97 113.08-16.11 113.18-16.26 113.25-16.46 113.33-16.65 113.45-16.82 113.57-16.99 113.81-17.04L113.81-17.04 113.81-17.14Q113.81-18.02 114.18-18.8 114.55-19.58 114.55-20.46L114.55-20.46Q114.55-20.7 114.5-20.92 114.45-21.14 114.35-21.39L114.35-21.39Q114.79-21.88 114.91-22.51 115.03-23.14 115.06-23.83 115.08-24.51 115.13-25.2 115.18-25.88 115.52-26.51L115.52-26.51Q115.52-27 115.18-27.2L115.18-27.2 115.77-27.98Q116.06-28.37 116.45-28.61L116.45-28.61 116.55-28.61Q117.08-28.61 117.5-28.34 117.91-28.08 118.28-27.76 118.65-27.44 119.04-27.12 119.43-26.81 119.92-26.66L119.92-26.66 119.92-25.59Q120.41-25.39 120.65-24.9L120.65-24.9Q120.6-23.58 120.58-22.27 120.55-20.95 120.55-19.68L120.55-19.68Q120.55-17.72 120.65-15.8 120.75-13.87 121.14-11.96L121.14-11.96Q121.67-11.43 122.24-10.89 122.8-10.35 123.09-9.67L123.09-9.67 123.68-9.67Q125.39-9.67 126.31-10.77 127.24-11.87 127.63-13.33L127.63-13.33Q128.36-13.67 128.73-14.28 129.1-14.89 129.32-15.63 129.54-16.36 129.71-17.11 129.88-17.87 130.27-18.46L130.27-18.46Q130.32-19.04 130.32-19.63L130.32-19.63 130.32-20.85Q130.32-23.68 130.05-26.49 129.78-29.3 129.73-32.08L129.73-32.08Q129.54-32.47 129.44-33.01L129.44-33.01 129.29-34.08Q129.24-34.62 129.07-35.08 128.9-35.55 128.56-35.74L128.56-35.74Q128.71-36.23 128.71-36.91L128.71-36.91Q128.71-37.55 128.58-38.18 128.46-38.82 128.32-39.45L128.32-39.45Q128.71-39.79 128.95-40.14 129.19-40.48 129.78-40.48L129.78-40.48Q130.12-40.48 130.39-40.28 130.66-40.09 130.9-39.84 131.15-39.6 131.42-39.4 131.68-39.21 132.08-39.21L132.08-39.21Q132.17-39.21 132.29-39.23 132.42-39.26 132.56-39.26L132.56-39.26Q133.05-38.77 133.37-38.04 133.69-37.3 133.95-36.5 134.22-35.69 134.54-34.91 134.86-34.13 135.35-33.5L135.35-33.5Q135.35-33.35 135.32-33.23 135.3-33.11 135.3-32.96L135.3-32.96Q135.3-32.52 135.44-32.08 135.59-31.64 135.69-31.2Z" opacity="1" transform="matrix(1,0,0,1,0,0)" fill="#ffbe79" class="wordmark-text-0" data-fill-palette-color="primary" id="text-0"></path></svg></g></svg></g></svg></g></svg></g><g></g></svg></g></svg></g></svg></g></svg></g><defs></defs></svg><rect width="320" height="360" fill="none" stroke="none" visibility="hidden"></rect></g></svg></g></svg>